<svg width="148" height="59" viewBox="0 0 148 59" fill="none" xmlns="http://www.w3.org/2000/svg">
<rect width="147.89" height="58.7821" fill="white"/>
<path d="M50.4477 12.4072C45.997 12.4072 42.3966 16.0076 42.3966 20.4583C42.3966 24.9089 45.997 28.5093 50.4477 28.5093C54.8983 28.5093 58.4987 24.9089 58.4987 20.4583C58.4987 16.0076 54.8983 12.4072 50.4477 12.4072ZM50.4477 25.3498C47.9074 25.3498 45.85 23.156 45.85 20.4478C45.85 17.7396 47.9074 15.5458 50.4477 15.5458C52.9879 15.5458 55.0453 17.7396 55.0453 20.4478C55.0453 23.156 52.9879 25.3498 50.4477 25.3498ZM42.9634 30.6927H39.5835C39.4575 30.6927 39.3315 30.7661 39.2895 30.8921L36.8018 36.5079L34.3141 30.8921C34.2616 30.7766 34.1461 30.6927 34.0201 30.6927H30.6402C30.6192 30.6927 30.6087 30.7137 30.6087 30.7347L34.9754 40.2868C35.0803 40.5072 35.1328 40.7591 35.1328 41.0005V46.102H38.4918V40.969C38.4918 40.7276 38.5443 40.4757 38.6492 40.2553L42.9949 30.7347C42.9949 30.7137 42.9844 30.6927 42.9634 30.6927ZM76.2383 28.1629H84.1739V24.8984H76.2383V21.7809H83.5126V18.7158H76.2383V16.0076H84.1739V12.7431H76.2383H73.4357H72.9213V28.1629H73.4357H76.2383V28.1629ZM18.9572 30.6927H18.4429V46.1125H18.9572H21.7599H29.706V42.848H21.7704V39.7304H29.0447V36.6654H21.7704V33.9572H29.706V30.6927H21.7704H18.9572V30.6927ZM67.7989 19.2302L67.8828 21.6234L67.8723 21.9488L63.2747 13.016C63.1908 12.8481 63.0123 12.7431 62.8234 12.7431H59.8633V28.1629H63.1278V21.2245L63.0648 19.0937L63.8941 20.8782L67.6939 27.995C67.7464 28.1 67.8619 28.1629 67.9773 28.1629H71.0634V12.7431H67.7989V19.2302ZM50.4477 30.3253C45.997 30.3253 42.3966 33.9257 42.3966 38.3763C42.3966 42.827 45.997 46.4274 50.4477 46.4274C54.8983 46.4274 58.4987 42.827 58.4987 38.3763C58.4987 33.9362 54.8983 30.3253 50.4477 30.3253ZM50.4477 43.2783C47.9074 43.2783 45.85 41.0845 45.85 38.3763C45.85 35.6682 47.9074 33.4743 50.4477 33.4743C52.9879 33.4743 55.0453 35.6682 55.0453 38.3763C55.0453 41.0845 52.9879 43.2783 50.4477 43.2783ZM67.7989 37.1587L67.8828 39.552L67.8723 39.8774L63.2747 30.9341C63.1908 30.7662 63.0123 30.6612 62.8234 30.6612H59.8633V46.081H63.1278V39.1426L63.0648 37.0118L63.8941 38.7962L67.6939 45.913C67.7464 46.018 67.8619 46.081 67.9773 46.081H71.0634V30.6612H67.7989V37.1587ZM78.0123 30.6927H72.9108V46.0915H78.0123C82.2005 46.0915 85.6015 42.6485 85.6015 38.3868C85.6015 34.1356 82.211 30.6927 78.0123 30.6927ZM78.0123 42.9634H76.2803V33.8102H78.0123C80.2901 33.8102 82.148 35.8571 82.148 38.3868C82.148 40.9166 80.3006 42.9634 78.0123 42.9634ZM14.9055 37.925C15.9866 37.2637 16.7214 35.9936 16.7214 34.545C16.7214 32.2672 14.6325 30.6822 12.5332 30.6822H9.43662H6.07764V46.1125H8.77532H9.43662H12.6906C14.874 46.1125 17.1518 44.2755 17.1518 41.8193C17.1518 40.0138 16.2385 38.5758 14.9055 37.925ZM9.43662 36.9278V33.4638H11.7459C12.6591 33.4638 13.3939 34.2406 13.3939 35.1958C13.3939 36.151 12.6591 36.9278 11.7459 36.9278H9.43662ZM12.1028 43.3203H9.43662V42.9739V39.6989H12.1028C13.016 39.6989 13.7508 40.5072 13.7508 41.5149C13.7508 42.5121 13.016 43.3203 12.1028 43.3203Z" fill="black"/>
<path fill-rule="evenodd" clip-rule="evenodd" d="M89 12.4072H143.436V27.9999H133.259C132.435 25.6696 130.212 23.9999 127.6 23.9999C124.286 23.9999 121.6 26.6862 121.6 29.9999C121.6 33.3137 124.286 35.9999 127.6 35.9999C130.212 35.9999 132.435 34.3303 133.259 31.9999H143.436V46.4274H89V12.4072Z" fill="black"/>
<path d="M94.5591 26.2915H98.3845V27.7221H96.0107V29.1213H98.3845V30.5309H96.0107V34H94.5591V26.2915ZM103.337 26.0976C104.427 26.0976 105.363 26.4924 106.145 27.2819C106.932 28.0714 107.325 29.0339 107.325 30.1693C107.325 31.2942 106.937 32.2462 106.161 33.0253C105.389 33.8044 104.451 34.1939 103.347 34.1939C102.191 34.1939 101.23 33.7939 100.465 32.9939C99.6999 32.1938 99.3173 31.2436 99.3173 30.1431C99.3173 29.406 99.4955 28.7282 99.8518 28.1099C100.208 27.4915 100.697 27.0024 101.319 26.6426C101.944 26.2792 102.617 26.0976 103.337 26.0976ZM103.321 27.5334C102.608 27.5334 102.009 27.7815 101.524 28.2776C101.038 28.7736 100.795 29.4042 100.795 30.1693C100.795 31.0217 101.101 31.696 101.712 32.1921C102.187 32.5799 102.732 32.7738 103.347 32.7738C104.042 32.7738 104.635 32.5222 105.124 32.0192C105.613 31.5161 105.857 30.896 105.857 30.1588C105.857 29.4252 105.611 28.8051 105.118 28.2985C104.626 27.7885 104.027 27.5334 103.321 27.5334ZM112.748 27.3395L111.664 28.2985C111.283 27.7675 110.895 27.502 110.5 27.502C110.308 27.502 110.151 27.5544 110.029 27.6592C109.906 27.7605 109.845 27.8758 109.845 28.0051C109.845 28.1343 109.889 28.2566 109.976 28.3719C110.095 28.5256 110.453 28.8557 111.05 29.3623C111.609 29.8304 111.948 30.1257 112.067 30.2479C112.364 30.5484 112.574 30.8366 112.696 31.1126C112.822 31.3851 112.885 31.6838 112.885 32.0087C112.885 32.641 112.666 33.1633 112.229 33.5755C111.793 33.9878 111.223 34.1939 110.521 34.1939C109.973 34.1939 109.494 34.0594 109.085 33.7904C108.68 33.5214 108.332 33.0987 108.042 32.5222L109.274 31.7781C109.644 32.4593 110.07 32.8 110.553 32.8C110.804 32.8 111.015 32.7266 111.187 32.5799C111.358 32.4331 111.443 32.2637 111.443 32.0716C111.443 31.8969 111.379 31.7222 111.25 31.5475C111.12 31.3728 110.836 31.1056 110.395 30.7458C109.557 30.061 109.015 29.5335 108.771 29.1632C108.526 28.7894 108.404 28.4173 108.404 28.047C108.404 27.5125 108.607 27.0548 109.012 26.674C109.421 26.2897 109.924 26.0976 110.521 26.0976C110.905 26.0976 111.271 26.1867 111.616 26.3648C111.966 26.543 112.343 26.8679 112.748 27.3395ZM118.334 27.3395L117.25 28.2985C116.869 27.7675 116.481 27.502 116.086 27.502C115.894 27.502 115.737 27.5544 115.615 27.6592C115.492 27.7605 115.431 27.8758 115.431 28.0051C115.431 28.1343 115.475 28.2566 115.562 28.3719C115.681 28.5256 116.039 28.8557 116.637 29.3623C117.196 29.8304 117.534 30.1257 117.653 30.2479C117.95 30.5484 118.16 30.8366 118.282 31.1126C118.408 31.3851 118.471 31.6838 118.471 32.0087C118.471 32.641 118.252 33.1633 117.816 33.5755C117.379 33.9878 116.81 34.1939 116.107 34.1939C115.559 34.1939 115.08 34.0594 114.671 33.7904C114.266 33.5214 113.919 33.0987 113.629 32.5222L114.86 31.7781C115.23 32.4593 115.657 32.8 116.139 32.8C116.39 32.8 116.602 32.7266 116.773 32.5799C116.944 32.4331 117.03 32.2637 117.03 32.0716C117.03 31.8969 116.965 31.7222 116.836 31.5475C116.706 31.3728 116.422 31.1056 115.982 30.7458C115.143 30.061 114.602 29.5335 114.357 29.1632C114.113 28.7894 113.99 28.4173 113.99 28.047C113.99 27.5125 114.193 27.0548 114.598 26.674C115.007 26.2897 115.51 26.0976 116.107 26.0976C116.492 26.0976 116.857 26.1867 117.203 26.3648C117.552 26.543 117.929 26.8679 118.334 27.3395Z" fill="white"/>
</svg>
