<?xml version="1.0" encoding="utf-8"?>
<!-- Generator: Adobe Illustrator 26.2.1, SVG Export Plug-In . SVG Version: 6.00 Build 0)  -->
<svg version="1.1" id="Layer_1" xmlns="http://www.w3.org/2000/svg" xmlns:xlink="http://www.w3.org/1999/xlink" x="0px" y="0px"
	 viewBox="0 0 1810 630" style="enable-background:new 0 0 1810 630;" xml:space="preserve">
<style type="text/css">
	.st0{fill-rule:evenodd;clip-rule:evenodd;}
	.st1{fill:#191919;}
	.st2{display:none;}
	.st3{display:inline;}
	.st4{fill:#CFFF00;}
	.st5{display:none;fill:#CFFF00;}
	.st6{fill:none;stroke:#CFFF00;stroke-width:4;stroke-miterlimit:10;}
	.st7{font-family:'CenturyGothic-Bd';}
	.st8{font-size:91.1673px;}
</style>
<rect class="st0" width="1810" height="630"/>
<g>
	<path d="M-1.9,0C207,0,1602.8,0,1811.7,0c0,9,0,18.1,0,27.1c-3.1-0.2-145.1-0.6-148.2-0.6c-103.5,0.1-206.9,0.3-310.4,0.4
		C1250.8,27,100.4,27-1.9,27.1C-1.9,18.1-1.9,9-1.9,0z"/>
	<path d="M1811.7,40.6c0,10.7,0,21.5,0,32.2c-53.3,0.1-245.6,0.2-298.9,0.4c-25.6,0.1-50.5-3.3-75-11
		c-59.9-18.8-119.4-16.7-178.6,3.9c-11.2,3.9-23.6,6.1-35.5,6.4c-35,0.9-70,0.4-104.9,0.7C1094.5,73.4,22.3,74.1-1.9,74.5
		c0-11.3,0-22.6,0-33.9c20,0,1088,0.1,1108,0.1C1295,40.7,1622.8,40.7,1811.7,40.6z"/>
	<path d="M-1.9,501.3c0-4,0-7.9,0-11.9c35.8,0.1,1119.6,0.2,1155.4,0.1c13.6,0,24-5.8,32-17.2c36.5-51.9,86.7-82.2,149.8-87.3
		c78.6-6.4,142.2,23.3,189.3,86.6c9.6,12.9,21.5,19,36.5,19.2c37.2,0.5,213.4,0.2,250.6,0.3c0,4.5,0,9,0,13.5
		c-3-0.4-145.1-1.1-148.1-1.2c-41.4-0.3-82.9-0.6-124.3-0.7c-15.2,0-27.2-4.7-37.7-16.9c-33.6-39.2-76.7-61.7-128.1-66.2
		c-66.3-5.8-121.7,16.9-165.4,67.4c-7.7,8.9-17,14.4-28.5,14.4C1135.2,501.7,42.6,501.4-1.9,501.3z"/>
	<path d="M1811.7,464c0,5.1,0,10.2,0,15.2c-3-0.4-145-1.2-148.1-1.2c-33-0.3-66-0.5-99-0.5c-13.4,0-23.4-5-31.5-16.2
		c-51.8-71.9-144.8-105.8-230.7-84.3c-52.1,13.1-94.2,41-125.2,85.1c-5.5,7.8-12.1,13.8-22,13.9c-36.4,0.2-1120.8-0.1-1157.1-0.2
		c0-4.5,0-9,0-13.5c29.1,0.1,1106.1,0.6,1135.2,0.1c13.3-0.2,24-6.5,31.7-18.2c7.2-10.8,14.7-21.5,23.4-31
		c99.2-108.3,272.8-95.1,354.4,27.2c11.2,16.8,25.1,23.8,44.4,23.6C1615.7,463.7,1783.2,464,1811.7,464z"/>
	<path d="M1811.7,433.5c0,5.6,0,11.3,0,16.9c-29-0.2-197.1-0.6-226.1-0.7c-13.1,0-22.7-4.7-30.3-16.1
		c-96-144.1-303.7-144.1-399.7-0.2c-6.8,10.2-15.9,15.4-28.3,15.3c-27.1-0.1-1102.1,0-1129.2,0c0-5.1,0-10.2,0-15.2
		c5.1-0.2,1058.1-0.6,1063.2-0.6c17.8,0,35.6,0.1,53.3,0c13.6-0.1,23.5-5.2,31.4-17.4c45-69.7,109.1-110.1,192-115.1
		c97-5.8,172.8,34.4,227.2,114.8c7,10.4,15.9,17.6,28,18C1619.7,434.2,1785.2,433.6,1811.7,433.5z"/>
	<path d="M-1.9,525c0-3.4,0-6.8,0-10.2c3.1-0.1,1054.2-0.3,1057.3-0.3c39.5,0,78.9,0,118.4-0.1c18.9-0.1,35.4-5.4,47.3-21.5
		c4.1-5.6,9.5-10.4,14.7-15.1c75.2-67.3,191-59.4,257.2,18c11,12.8,23.7,19.2,40.3,19.2c36.1,0,72.2,0.4,108.3,0.5
		c10.4,0,159.8-0.5,170.2-0.7c0,4,0,7.9,0,11.9c-57.5-0.3-254.1-0.4-311.6-0.8c-13.4-0.1-24.9-5-35.3-14.1
		c-60.8-53.1-157.2-53.9-217.1-1.7c-12.5,10.9-26.4,15.8-42.4,15.8C1152.2,525.6,51.1,525.3-1.9,525z"/>
	<path d="M1811.7,403.1c0,6.2,0,12.4,0,18.6c-2.8-0.2-144.6-0.4-147.4-0.5c-20.6-0.2-41.2-0.5-61.8-0.5c-13.9,0-24.5-5.2-31-18
		c-2.7-5.2-5.9-10.4-9.6-14.9c-66.2-80.1-150.8-114.5-253.6-97.1c-71.5,12.1-127.9,50.3-168.1,110.8c-8.9,13.4-19.3,19.3-34.9,18.8
		C1085.6,419.7,17.8,420-1.9,420c0-6.2,0-12.4,0-18.6c18.6,0.2,1085.2,0.9,1103.8,0.6c14.9-0.3,26.7-6.1,35-19.7
		c21.3-34.8,49.8-62.8,84.8-83.5c121.5-71.7,274.3-36.5,351.9,81.5c10.8,16.4,24.9,22.7,43.2,22.9
		C1635.5,403.1,1793.1,403.1,1811.7,403.1z"/>
	<path d="M1811.7,370.9c0,6.2,0,12.4,0,18.6c-16.9,0-172.9-0.5-189.8,0.3c-17.5,0.8-29.4-6-39.3-20.7
		c-109.8-162.3-347.7-161.9-454.3,2c-8.5,13-20.1,18.3-34.8,18.4c-15.8,0.1-1079.6,0-1095.4,0c0-6.8,0-13.5,0-20.3
		c15.8,0.3,1079.5,1.1,1095.3,0.7c16.4-0.3,27.9-8.4,37.3-22.4c34-51,80.6-86.3,138.8-105.4c116.8-38.4,243,4.3,312.5,106.3
		c11,16.1,24.7,22.7,43.3,22.5C1641.1,370.7,1795.9,370.9,1811.7,370.9z"/>
	<path d="M1811.7,86.4c0,10.7,0,21.5,0,32.2c-38.3,0-215.7-0.5-254,0.1c-18.1,0.3-33.9-4.4-50-12.6c-100-51.4-200.5-51.9-300.8-0.7
		c-14.1,7.2-28.4,12.5-44.2,12.7c-38.9,0.4-1125.8,0.4-1164.7,0.6c0-10.7,0-21.5,0-32.2c1.4,0.1,2.8,0.3,4.2,0.3
		c58.7,0,1165.3,0.3,1224-0.5c11.9-0.1,24.1-2.8,35.4-6.6c45.2-15.3,91.2-20.9,138.3-12.2c20.5,3.8,40.2,11.9,60.7,14.5
		c28.7,3.5,57.8,4.6,86.8,5C1589.2,87.5,1770,86.6,1811.7,86.4z"/>
	<path d="M-1.9,545.3c0-2.8,0-5.6,0-8.5c1.4,0.2,2.8,0.7,4.2,0.7c53.3,0.2,1154.6,0.7,1207.9,0.5c16.8,0,31.4-6,44.8-17.1
		c59.5-49.1,142.5-48.8,201.4,0.7c14.1,11.9,29.4,16.8,47.3,16.8c56.4-0.1,251.8,0,308.2,0.1c0,3.4,0,6.8,0,10.2
		c-4.2-0.2-147.4-0.6-151.7-0.7c-65.2-0.3-130.3-0.6-195.5-0.8c-20.7-0.1-39.6-4.4-58.1-14.9c-33.6-19.1-68.8-18.8-102.5,0.3
		c-17.4,9.8-35.2,14.4-54.8,14.2c-28.2-0.2-56.4,0-84.6-0.2C1125,546.4,37.6,545.8-1.9,545.3z"/>
	<path d="M-1.9,357.3c0-7.3,0-14.7,0-22c8.7,0,1065.6-0.8,1074.2,0c25.9,2.6,43.8-8.6,59.9-28.6c65.6-81.4,152-116.8,255.3-106.1
		c82.8,8.6,149.7,48.7,199.5,115.9c9.5,12.8,21.5,18.6,36.7,18.9c16.3,0.3,171.7-0.1,188-0.2c0,7.9,0,15.8,0,23.7
		c-15.4-0.5-169.9-1.7-185.3-1.5c-14.9,0.2-25.3-5.3-33.8-17.9c-74.4-110-218.2-154.3-341.6-105.3c-55.1,21.8-99.2,57.6-132.2,106.9
		c-7.3,10.9-16.5,17-30.3,16.3C1074.3,356.7,12.2,357.3-1.9,357.3z"/>
	<path d="M1811.7,298.1c0,7.9,0,15.8,0,23.7c-16.9-0.1-172.8,0.3-189.7-0.4c-9.9-0.4-18.4-4.8-24.1-13.6c-2.3-3.5-4.9-6.9-7.5-10.2
		c-81.8-102.1-218.7-139.6-341.7-93.5c-52.8,19.8-96.4,52.4-130.1,97.5c-10.7,14.3-23.7,20.7-41.2,20
		C1067,321.2,8.5,321.7-1.9,321.8c0-7.9,0-15.8,0-23.7c10.7,0,1069.4-0.2,1080.2,0.1c19.6,0.5,34.8-6.7,47.9-21.9
		c122.6-142.7,344.3-140.1,464.1,5.3c9,10.9,19.9,16.7,33.4,17.1C1640,299,1795.4,298.3,1811.7,298.1z"/>
	<path d="M-1.9,284.5c0-8.5,0-16.9,0-25.4c12.7,0.1,1073.4-0.1,1086.1,0.3c18,0.5,32.5-5.9,45.1-19.1
		c122.9-128.6,331.6-127.5,453.4,2.4c9.2,9.9,20.5,15.5,33.4,16.2c18.8,1,176.8,0.2,195.6,0.2c0,8.5,0,16.9,0,25.4
		c-15.8,0.1-170.6,0.6-186.4,0.3c-10.3-0.2-19.1-4.4-25.8-12.5c-5.2-6.3-10.5-12.6-16.2-18.4c-130.1-134-346.7-127.2-467.9,14.8
		c-9.7,11.3-21.2,16.2-35.5,16.2C1068.7,284.9,9.4,284.6-1.9,284.5z"/>
	<path d="M1811.7,162.6c-27.9-0.1-194.8,0.1-222.8-0.4c-16.4-0.3-31.2-5.1-45-14.9c-110.7-78.9-260.7-80.4-372.2-2.8
		c-19.4,13.5-38.8,19.2-61.4,18.6c-21.4-0.6-1090.8-0.4-1112.2-0.6c0-10.2,0-20.3,0-30.5c35.8,0.2,1119.6,0.1,1155.4,0.6
		c21.4,0.3,40.5-5.4,59.7-15.2c98.1-49.8,196.3-48.2,293.3,3.5c13.6,7.3,27.4,11.3,42.7,11.2c23.4-0.1,46.8,0.2,70.2,0.2
		c17.7,0,174.5-0.2,192.2-0.4C1811.7,142.3,1811.7,152.4,1811.7,162.6z"/>
	<path d="M-1.9,176.1c24.5,0,1097.1-0.3,1121.6,0.1c20.4,0.3,38.3-5.1,55.3-17c62.2-43.4,131.3-62.2,207-56
		c55.8,4.5,106.8,22.9,152.6,54.7c18.2,12.7,37.6,18.4,59.4,18.2c26.2-0.2,191.4,0,217.7,0.1c0,9.6,0,19.2,0,28.8
		c-22.9-0.1-184.7,0.3-207.6-0.3c-12.8-0.4-23.6-6.4-33.2-15.1c-44.2-40.2-96.5-64.5-154.8-75.1c-94.3-17.1-180.3,3.6-257.8,59.9
		c-5,3.6-9.6,7.9-13.9,12.3c-12.2,12.4-27,18-44.2,18.1c-18.1,0.1-1084.1,0.1-1102.2,0.2C-1.9,195.3-1.9,185.7-1.9,176.1z"/>
	<path d="M1811.7,245.6c-18,0-175.1,0.5-193-0.1c-11-0.4-20.4-5.2-28.4-13.3c-57.1-58.5-126.5-92.6-207.8-99
		c-100.3-7.9-187.4,23.2-258.5,95.7c-10.9,11.1-23.4,17.3-39,17.1c-13-0.2-1074-0.2-1086.9-0.4c0-9,0-18.1,0-27.1
		c17.2-0.1,1082.4-0.2,1099.6-0.2c19.3,0,36.1-5.5,51.2-18.4c64.5-54.9,139.5-80.7,224.1-76.3c71.3,3.8,134.6,29.3,188.9,75.7
		c15.7,13.4,32.5,19.4,52.5,19.1c19.4-0.2,177.9,0,197.4,0C1811.7,227.5,1811.7,236.5,1811.7,245.6z"/>
	<path d="M-1.9,558.9c68.8,0.2,1185.6,0.1,1254.4,0.6c20.5,0.1,39.2-4.3,57.2-14.7c30.8-17.8,62.6-17.2,93.2,0.9
		c14.8,8.8,30.3,13.6,47.3,13.6c72.8,0.1,284.5,0,357.3,0c1.4,0,2.8-0.3,4.2-0.4c0,2.8,0,5.6,0,8.5c-40,0-219,0.1-259.1,0.1
		c-117-0.1-234-0.2-351-0.4c-50.5-0.1-1148.9-0.6-1199.4-0.9c-1.4,0-2.8-0.3-4.2-0.4C-1.9,563.4-1.9,561.1-1.9,558.9z"/>
	<g>
		<path class="st1" d="M-1.9,321.8c10.4-0.1,1068.9-0.6,1079.3-0.2c17.4,0.7,30.5-5.6,41.2-20c33.7-45.1,77.3-77.7,130.1-97.5
			c123-46.1,259.9-8.6,341.7,93.5c2.6,3.3,5.3,6.6,7.5,10.2c5.7,8.8,14.3,13.1,24.1,13.6c16.9,0.8,172.8,0.3,189.7,0.4
			c0,4.5,0,9,0,13.5c-16.4,0.1-171.7,0.5-188,0.2c-15.1-0.3-27.2-6.1-36.7-18.9c-49.8-67.2-116.6-107.3-199.5-115.9
			c-103.3-10.7-189.7,24.6-255.3,106.1c-16.1,20-34,31.1-59.9,28.6c-8.7-0.9-1065.5-0.1-1074.2,0C-1.9,330.8-1.9,326.3-1.9,321.8z"
			/>
		<path class="st1" d="M-1.9,448.8c27.1,0,1102.2-0.1,1129.2,0c12.4,0.1,21.4-5.1,28.3-15.3c95.9-143.9,303.7-143.9,399.7,0.2
			c7.6,11.4,17.2,16.1,30.3,16.1c29,0.1,197.1,0.4,226.1,0.7c0,4.5,0,9,0,13.5c-28.5,0-196-0.3-224.5,0
			c-19.3,0.2-33.2-6.8-44.4-23.6c-81.6-122.3-255.2-135.5-354.4-27.2c-8.7,9.5-16.2,20.3-23.4,31c-7.7,11.6-18.4,17.9-31.7,18.2
			c-29.1,0.5-1106.1,0-1135.2-0.1C-1.9,457.8-1.9,453.3-1.9,448.8z"/>
		<path class="st1" d="M-1.9,389.5c15.8,0,1079.6,0.1,1095.4,0c14.8-0.1,26.3-5.4,34.8-18.4c106.6-163.9,344.6-164.3,454.3-2
			c10,14.7,21.8,21.5,39.3,20.7c16.9-0.8,172.8-0.2,189.8-0.3c0,4.5,0,9,0,13.5c-18.6,0-176.2,0.1-194.9,0
			c-18.3-0.1-32.3-6.4-43.2-22.9c-77.6-118-230.4-153.2-351.9-81.5c-35.1,20.7-63.5,48.8-84.8,83.5c-8.3,13.6-20.1,19.5-35,19.7
			c-18.6,0.3-1085.2-0.3-1103.8-0.6C-1.9,397.4-1.9,393.5-1.9,389.5z"/>
		<path class="st1" d="M-1.9,357.3c14.1,0,1076.2-0.6,1090.3,0.1c13.8,0.7,23-5.4,30.3-16.3c33-49.3,77.1-85,132.2-106.9
			c123.4-48.9,267.2-4.7,341.6,105.3c8.5,12.6,18.9,18.1,33.8,17.9c15.4-0.2,169.9,0.9,185.3,1.5c0,4,0,7.9,0,11.9
			c-15.8,0-170.6-0.2-186.4,0c-18.6,0.3-32.3-6.3-43.3-22.5c-69.5-101.9-195.7-144.7-312.5-106.3c-58.2,19.1-104.8,54.4-138.8,105.4
			c-9.3,14-20.9,22-37.3,22.4c-15.8,0.3-1079.5-0.4-1095.3-0.7C-1.9,365.2-1.9,361.3-1.9,357.3z"/>
		<path class="st1" d="M-1.9,420c19.7,0,1087.5-0.3,1107.2,0.3c15.6,0.5,26-5.4,34.9-18.8c40.2-60.6,96.6-98.8,168.1-110.8
			c102.8-17.3,187.4,17,253.6,97.1c3.7,4.5,6.9,9.7,9.6,14.9c6.5,12.8,17.1,18,31,18c20.6,0.1,41.2,0.3,61.8,0.5
			c2.8,0,144.6,0.3,147.4,0.5c0,4,0,7.9,0,11.9c-26.5,0-192,0.6-218.5-0.2c-12.1-0.4-21-7.6-28-18
			c-54.3-80.4-130.2-120.6-227.2-114.8c-82.9,5-147,45.3-192,115.1c-7.9,12.2-17.8,17.3-31.4,17.4c-17.8,0.1-35.6-0.1-53.3,0
			c-5.1,0-1058.1,0.4-1063.2,0.6C-1.9,429-1.9,424.5-1.9,420z"/>
		<path class="st1" d="M-1.9,218.5c0-4.5,0-9,0-13.5c18.1-0.1,1084.1-0.1,1102.2-0.2c17.1-0.1,32-5.7,44.2-18.1
			c4.3-4.4,8.9-8.7,13.9-12.3c77.5-56.3,163.5-77.1,257.8-59.9c58.3,10.6,110.6,35,154.8,75.1c9.5,8.7,20.3,14.7,33.2,15.1
			c22.8,0.6,184.7,0.3,207.6,0.3c0,4.5,0,9,0,13.5c-19.5,0-177.9-0.2-197.4,0c-20,0.2-36.8-5.7-52.5-19.1
			c-54.3-46.4-117.5-71.9-188.9-75.7c-84.6-4.5-159.6,21.4-224.1,76.3c-15.1,12.8-31.9,18.4-51.2,18.4
			C1080.5,218.3,15.3,218.4-1.9,218.5z"/>
		<path class="st1" d="M-1.9,284.5c11.3,0.1,1070.6,0.4,1081.9,0.4c14.3,0,25.8-4.9,35.5-16.2c121.2-142,337.8-148.8,467.9-14.8
			c5.7,5.9,11,12.1,16.2,18.4c6.7,8.2,15.5,12.3,25.8,12.5c15.8,0.3,170.6-0.1,186.4-0.3c0,4.5,0,9,0,13.5
			c-16.3,0.2-171.7,0.9-188,0.5c-13.6-0.3-24.5-6.2-33.4-17.1c-119.8-145.4-341.5-148-464.1-5.3c-13.1,15.2-28.3,22.5-47.9,21.9
			c-10.7-0.3-1069.4-0.1-1080.2-0.1C-1.9,293.5-1.9,289-1.9,284.5z"/>
		<path class="st1" d="M1811.7,162.6c0,4.5,0,9,0,13.5c-26.2,0-191.4-0.3-217.7-0.1c-21.8,0.2-41.2-5.5-59.4-18.2
			c-45.8-31.8-96.8-50.2-152.6-54.7c-75.7-6.1-144.9,12.7-207,56c-17,11.9-34.9,17.3-55.3,17c-24.5-0.4-1097-0.1-1121.6-0.1
			c0-4.5,0-9,0-13.5c21.4,0.2,1090.8,0,1112.2,0.6c22.7,0.6,42.1-5.1,61.4-18.6c111.5-77.7,261.6-76.1,372.2,2.8
			c13.7,9.8,28.6,14.6,45,14.9C1616.9,162.6,1783.8,162.5,1811.7,162.6z"/>
		<path class="st1" d="M-1.9,475.9c36.4,0.1,1120.8,0.3,1157.1,0.2c9.8,0,16.5-6.1,22-13.9c31-44.1,73.2-72,125.2-85.1
			c85.9-21.6,178.9,12.3,230.7,84.3c8.1,11.2,18.1,16.2,31.5,16.2c33,0.1,66,0.3,99,0.5c3,0,145.1,0.8,148.1,1.2c0,4,0,7.9,0,11.9
			c-37.2-0.1-213.4,0.2-250.6-0.3c-15.1-0.2-27-6.3-36.5-19.2c-47.1-63.3-110.7-93.1-189.3-86.6c-63.1,5.2-113.2,35.4-149.8,87.3
			c-8,11.4-18.4,17.2-32,17.2c-35.8,0.1-1119.6-0.1-1155.4-0.1C-1.9,484.9-1.9,480.4-1.9,475.9z"/>
		<path class="st1" d="M1811.7,514.8c-10.4,0.2-159.8,0.7-170.2,0.7c-36.1-0.1-72.2-0.5-108.3-0.5c-16.6,0-29.3-6.4-40.3-19.2
			c-66.2-77.4-182-85.4-257.2-18c-5.2,4.7-10.6,9.5-14.7,15.1c-11.9,16.1-28.3,21.5-47.3,21.5c-39.5,0.1-78.9,0.1-118.4,0.1
			c-3.1,0-1054.2,0.2-1057.3,0.3c0-4.5,0-9,0-13.5c44.5,0.1,1137.1,0.4,1181.6,0.2c11.5-0.1,20.8-5.6,28.5-14.4
			c43.7-50.4,99.1-73.2,165.4-67.4c51.4,4.5,94.5,27,128.1,66.2c10.4,12.2,22.4,16.9,37.7,16.9c41.4,0.1,82.9,0.4,124.3,0.7
			c3,0,145.1,0.8,148.1,1.2C1811.7,508.1,1811.7,511.5,1811.7,514.8z"/>
		<path class="st1" d="M1811.7,132.1c-17.7,0.1-174.5,0.4-192.2,0.4c-23.4,0-46.8-0.4-70.2-0.2c-15.3,0.1-29.1-4-42.7-11.2
			c-97.1-51.8-195.2-53.3-293.3-3.5c-19.2,9.8-38.4,15.4-59.7,15.2c-35.8-0.5-1119.6-0.4-1155.4-0.6c0-4.5,0-9,0-13.5
			c38.9-0.2,1125.8-0.2,1164.7-0.6c15.8-0.2,30-5.5,44.2-12.7c100.3-51.2,200.8-50.7,300.8,0.7c16,8.2,31.9,12.9,50,12.6
			c38.3-0.6,215.7-0.1,254-0.1C1811.7,123.1,1811.7,127.6,1811.7,132.1z"/>
		<path class="st1" d="M1811.7,259.1c-18.9,0-176.8,0.7-195.6-0.2c-12.9-0.7-24.2-6.3-33.4-16.2c-121.8-129.9-330.5-131-453.4-2.4
			c-12.6,13.2-27,19.7-45.1,19.1c-12.7-0.4-1073.4-0.2-1086.1-0.3c0-4.5,0-9,0-13.5c13,0.1,1074,0.2,1086.9,0.4
			c15.6,0.2,28-5.9,39-17.1c71.1-72.4,158.2-103.6,258.5-95.7c81.3,6.4,150.7,40.5,207.8,99c7.9,8.1,17.4,12.9,28.4,13.3
			c18,0.6,175,0.1,193,0.1C1811.7,250.1,1811.7,254.6,1811.7,259.1z"/>
		<path class="st1" d="M1811.7,86.4c-41.7,0.2-222.5,1.1-264.2,0.5c-29-0.4-58.1-1.5-86.8-5c-20.5-2.5-40.3-10.7-60.7-14.5
			c-47.1-8.7-93.1-3.1-138.3,12.2c-11.3,3.8-23.6,6.5-35.4,6.6C1167.6,87,61,86.7,2.3,86.7c-1.4,0-2.8-0.2-4.2-0.3c0-4,0-7.9,0-11.9
			c24.2-0.5,1096.4-1.1,1120.7-1.3c35-0.3,70,0.2,104.9-0.7c11.9-0.3,24.2-2.5,35.5-6.4c59.2-20.6,118.7-22.7,178.6-3.9
			c24.5,7.7,49.4,11.1,75,11c53.3-0.2,245.6-0.3,298.9-0.4C1811.7,77.3,1811.7,81.9,1811.7,86.4z"/>
		<path class="st1" d="M1811.7,40.6c-188.9,0-516.7,0-705.6,0.1c-20,0-1088,0-1108-0.1c0-4.5,0-9,0-13.5
			c102.3-0.1,1252.7-0.1,1355-0.2c103.5-0.1,206.9-0.3,310.4-0.4c3.1,0,145.1,0.4,148.2,0.6C1811.7,31.6,1811.7,36.1,1811.7,40.6z"
			/>
		<path class="st1" d="M1811.7,538.5c-56.4,0-251.8-0.1-308.2-0.1c-17.8,0-33.1-4.9-47.3-16.8c-58.9-49.5-141.9-49.8-201.4-0.7
			c-13.4,11-28,17-44.8,17.1c-53.3,0.1-1154.6-0.3-1207.9-0.5c-1.4,0-2.8-0.4-4.2-0.7c0-4,0-7.9,0-11.9
			c53,0.3,1154.1,0.6,1207.1,0.9c16.1,0.1,29.9-4.8,42.4-15.8c59.9-52.2,156.3-51.4,217.1,1.7c10.4,9,21.9,14,35.3,14.1
			c57.5,0.4,254.1,0.6,311.6,0.8C1811.7,530.6,1811.7,534.6,1811.7,538.5z"/>
		<path class="st1" d="M-1.9,579.2c0-4.5,0-9,0-13.5c1.4,0.1,2.8,0.4,4.2,0.4c50.5,0.3,1148.9,0.8,1199.4,0.9
			c117,0.3,234,0.3,351,0.4c40,0,219-0.1,259.1-0.1c0,4.5,0,9,0,13.5c-1.1-0.1-2.2-0.2-3.4-0.2c-171.7-0.5-482.4-1.1-654-1.5
			C1118.2,579.1,34.2,579.2-1.9,579.2z"/>
		<path class="st1" d="M1811.7,587.7c0,4,0,7.9,0,11.9c-37.8,0.1-214.5,0.3-252.3,0.2c-133.9-0.3-267.8-0.7-401.7-1.2
			c-37.2-0.1-1122.4-0.5-1159.6-0.7c0-4,0-7.9,0-11.9c26.8-0.1,1101.6-0.2,1128.3-0.1C1308.5,586.4,1629.6,587,1811.7,587.7z"/>
		<path class="st1" d="M-1.9,545.3c39.5,0.5,1126.9,1.1,1166.4,1.4c28.2,0.2,56.4,0,84.6,0.2c19.6,0.2,37.5-4.4,54.8-14.2
			c33.7-19,68.8-19.4,102.5-0.3c18.5,10.5,37.4,14.8,58.1,14.9c65.2,0.2,130.3,0.5,195.5,0.8c4.2,0,147.4,0.4,151.7,0.7
			c0,3.4,0,6.8,0,10.2c-1.4,0.1-2.8,0.4-4.2,0.4c-72.8,0-284.5,0.2-357.3,0c-16.9,0-32.4-4.9-47.3-13.6
			c-30.6-18.1-62.4-18.7-93.2-0.9c-18,10.4-36.7,14.8-57.2,14.7C1183.7,559,66.9,559-1.9,558.9C-1.9,554.4-1.9,549.8-1.9,545.3z"/>
		<path class="st1" d="M1811.7,606.3c0,4,0,7.9,0,11.9c-2.8-0.2-144.6-0.4-147.4-0.5c-43.7-0.1-87.4-0.2-131.1-0.3
			c-111.9-0.4-223.8-0.8-335.8-1.1c-50.5-0.1-1148.9,0.1-1199.4,0.1c0-4,0-7.9,0-11.9c9.5-0.3,1067.1-1,1076.6-1
			c172.3,0.4,344.6,0.8,516.8,1.3C1618.6,605,1784.7,605.8,1811.7,606.3z"/>
		<path class="st1" d="M1811.7,621.5c0,2.8,0,5.6,0,8.5c-208.9,0-1604.7,0-1813.6,0c0-3.4,0-6.8,0-10.2
			c60.6,0.4,1169.2,0.9,1229.8,1c67.4,0.1,134.7-0.2,202.1-0.1C1510.9,620.9,1730.8,621.3,1811.7,621.5z"/>
	</g>
	<path d="M1811.7,587.7c-182.1-0.6-503.2-1.3-685.3-1.8c-26.8-0.1-1101.6,0.1-1128.3,0.1c0-2.3,0-4.5,0-6.8
		c36.1,0,1120.1-0.1,1156.2,0c171.7,0.5,482.4,1,654,1.5c1.1,0,2.2,0.1,3.4,0.2C1811.7,583.1,1811.7,585.4,1811.7,587.7z"/>
	<path d="M1811.7,606.3c-27-0.5-193.1-1.3-220.1-1.4c-172.3-0.5-344.6-0.9-516.8-1.3c-9.5,0-1067.1,0.6-1076.6,1c0-2.3,0-4.5,0-6.8
		c37.2,0.2,1122.4,0.6,1159.6,0.7c133.9,0.4,267.8,0.8,401.7,1.2c37.8,0.1,214.5-0.1,252.3-0.2
		C1811.7,601.8,1811.7,604,1811.7,606.3z"/>
	<path d="M1811.7,621.5c-80.9-0.3-300.8-0.7-381.7-0.8c-67.4-0.1-134.7,0.3-202.1,0.1c-60.6-0.1-1169.2-0.7-1229.8-1
		c0-1.1,0-2.3,0-3.4c50.5-0.1,1148.9-0.3,1199.4-0.1c111.9,0.3,223.8,0.7,335.8,1.1c43.7,0.1,87.4,0.2,131.1,0.3
		c2.8,0,144.6,0.3,147.4,0.5C1811.7,619.3,1811.7,620.4,1811.7,621.5z"/>
</g>
<g class="st2">
	<g class="st3">
		<g>
			<rect x="1564" class="st4" width="489" height="630"/>
		</g>
		<g>
			<rect x="1507.4" y="0" class="st4" width="57.3" height="57.3"/>
			<rect x="1450.1" y="57.3" class="st4" width="57.3" height="57.3"/>
			<rect x="1507.4" y="114.5" class="st4" width="57.3" height="57.3"/>
			<rect x="1507.4" y="171.8" class="st4" width="57.3" height="57.3"/>
			<rect x="1507.4" y="286.4" class="st4" width="57.3" height="57.3"/>
			<rect x="1450.1" y="229.1" class="st4" width="57.3" height="57.3"/>
			<rect x="1450.1" y="286.4" class="st4" width="57.3" height="57.3"/>
			<rect x="1392.8" y="286.4" class="st4" width="57.3" height="57.3"/>
			<rect x="1163.8" y="286.4" class="st4" width="57.3" height="57.3"/>
			<rect x="1049.2" y="343.6" class="st4" width="57.3" height="57.3"/>
			<rect x="1221" y="171.8" class="st4" width="57.3" height="57.3"/>
			<rect x="1392.8" y="458.2" class="st4" width="57.3" height="57.3"/>
			<rect x="1392.8" y="171.8" class="st4" width="57.3" height="57.3"/>
			<rect x="1450.1" y="114.5" class="st4" width="57.3" height="57.3"/>
			<rect x="1392.8" y="0" class="st4" width="57.3" height="57.3"/>
			<rect x="1450.1" y="343.6" class="st4" width="57.3" height="57.3"/>
			<rect x="1392.8" y="400.9" class="st4" width="57.3" height="57.3"/>
			<rect x="1335.6" y="343.6" class="st4" width="57.3" height="57.3"/>
			<rect x="1335.6" y="229.1" class="st4" width="57.3" height="57.3"/>
			<rect x="1335.6" y="114.5" class="st4" width="57.3" height="57.3"/>
			<rect x="1392.8" y="57.3" class="st4" width="57.3" height="57.3"/>
			<rect x="1278.3" y="0" class="st4" width="57.3" height="57.3"/>
			<rect x="1221" y="57.3" class="st4" width="57.3" height="57.3"/>
			<rect x="1163.8" y="171.8" class="st4" width="57.3" height="57.3"/>
			<rect x="1049.2" y="114.5" class="st4" width="57.3" height="57.3"/>
			<rect x="920.3" y="171.8" class="st4" width="57.3" height="57.3"/>
			<rect x="748.5" y="257.7" class="st5" width="57.3" height="57.3"/>
			<rect x="805.8" y="386.6" class="st5" width="57.3" height="57.3"/>
			<rect x="991.9" y="0" class="st4" width="57.3" height="57.3"/>
			<rect x="1221" y="400.9" class="st4" width="57.3" height="57.3"/>
			<rect x="1278.3" y="515.5" class="st4" width="57.3" height="57.3"/>
			<rect x="1335.6" y="515.5" class="st4" width="57.3" height="57.3"/>
			<rect x="1278.3" y="572.7" class="st4" width="57.3" height="57.3"/>
			<rect x="1163.8" y="572.7" class="st4" width="57.3" height="57.3"/>
			<rect x="991.9" y="515.5" class="st4" width="57.3" height="57.3"/>
			<rect x="1278.3" y="343.6" class="st4" width="57.3" height="57.3"/>
			<rect x="1450.1" y="458.2" class="st4" width="57.3" height="57.3"/>
			<rect x="1507.4" y="572.7" class="st4" width="57.3" height="57.3"/>
			<rect x="1507.4" y="515.5" class="st4" width="57.3" height="57.3"/>
			<rect x="1450.1" y="572.7" class="st4" width="57.3" height="57.3"/>
			<rect x="1392.8" y="572.7" class="st4" width="57.3" height="57.3"/>
			<rect x="1507.4" y="458.2" class="st4" width="57.3" height="57.3"/>
			<g>
				<rect x="1564" y="515.5" width="57.3" height="57.3"/>
				<rect x="1664.2" y="0" width="57.3" height="57.3"/>
			</g>
		</g>
	</g>
</g>
<g id="One-Beyond-Primary-Logo_x2B_Box_x2B_Strapline-Black-RGB_00000179621175994867158460000013977020012986994065_">
	<g>
		<path class="st4" d="M302.4,54C290.1,54,280,64,280,76.3s10,22.4,22.4,22.4s22.4-10,22.4-22.4S314.8,54,302.4,54z M302.4,90
			c-7.1,0-12.8-6.1-12.8-13.6c0-7.5,5.7-13.6,12.8-13.6c7.1,0,12.8,6.1,12.8,13.6C315.2,83.9,309.5,90,302.4,90z M281.5,104.7h-9.4
			c-0.4,0-0.7,0.2-0.8,0.6l-6.9,15.6l-6.9-15.6c-0.1-0.3-0.5-0.6-0.8-0.6h-9.4c-0.1,0-0.1,0.1-0.1,0.1l12.1,26.6
			c0.3,0.6,0.4,1.3,0.4,2v14.2h9.3v-14.3c0-0.7,0.1-1.4,0.4-2l12.1-26.5C281.6,104.8,281.6,104.7,281.5,104.7z M374,97.7h22.3v-9
			h-22.2v-8.8h20.1v-8.5h-20.1v-7.6h21.9v-9h-22h-7.8h-1.4v42.9h1.4H374z M214.8,104.7h-1.5v42.9h1.5h7.8h22.2v-9h-22.2v-8.8h20.1
			v-8.5h-20.1v-7.6h22.2v-9h-22.2L214.8,104.7L214.8,104.7z M350.8,72.9l0.2,6.7l0,0.9l-12.7-24.9c-0.2-0.5-0.7-0.8-1.3-0.8h-8.4
			v42.9h9V78.4l-0.2-5.9l2.3,5l10.5,19.8c0.1,0.3,0.5,0.5,0.8,0.5h8.7l0,0V54.8h-9V72.9z M302.4,103.8c-12.4,0-22.4,10-22.4,22.4
			s10,22.4,22.4,22.4s22.4-10,22.4-22.4C324.8,113.8,314.8,103.8,302.4,103.8z M302.4,139.8c-7.1,0-12.8-6.1-12.8-13.6
			c0-7.5,5.7-13.6,12.8-13.6c7.1,0,12.8,6.1,12.8,13.6C315.2,133.7,309.5,139.8,302.4,139.8z M350.8,122.8l0.2,6.7l0,0.9l-12.7-24.9
			c-0.2-0.5-0.7-0.8-1.3-0.8h-8.4v42.9h9v-19.3l-0.2-5.9l2.3,5l10.5,19.8c0.1,0.3,0.5,0.5,0.8,0.5h8.7l0,0v-42.9h-9V122.8z
			 M379,104.7h-14.2v42.9H379c11.7,0,21.1-9.6,21.1-21.5C400.2,114.3,390.7,104.7,379,104.7z M379,138.9h-4.8v-25.4h4.8
			c6.3,0,11.5,5.7,11.5,12.7S385.3,138.9,379,138.9z M203.7,124.9c3-1.8,5.1-5.4,5.1-9.4c0-6.3-5.8-10.7-11.6-10.7h-8.6l0,0h-9.3
			v42.9h7.5h1.8h9c6.1,0,12.4-5.1,12.4-11.9C210,130.7,207.4,126.7,203.7,124.9z M188.5,122.2v-9.6h6.4c2.5,0,4.6,2.2,4.6,4.8
			c0,2.7-2,4.8-4.6,4.8H188.5z M196,140h-7.5v-1v-9.2h7.5c2.6,0,4.6,2.3,4.6,5.1C200.7,137.8,198.6,140,196,140z"/>
		<rect x="405.1" y="53.9" class="st4" width="168.1" height="94.6"/>
	</g>
	<g>
		<path class="st4" d="M185.6,161.9h3.3l6.5,16.9h-3.3l-1.3-3.5h-6.9l-1.4,3.5h-3.3L185.6,161.9z M187.3,166.6l-2.2,5.8h4.5
			L187.3,166.6z"/>
		<path class="st4" d="M212.3,176.2c-2.2,2.2-4.2,3.3-7.4,3.3c-5.3,0-9-3.7-9-9c0-5.4,4.2-8.9,9-8.9c2.8,0,5.5,1.2,7.4,3.4l-2.3,2.2
			c-1.5-1.6-3.2-2.5-5.2-2.5c-3.2,0-5.8,2.5-5.8,5.8c0,3.5,2.5,5.9,5.9,5.9c2.1,0,3.5-0.8,5.1-2.5L212.3,176.2z"/>
		<path class="st4" d="M230.1,176.2c-2.2,2.2-4.2,3.3-7.4,3.3c-5.3,0-9-3.7-9-9c0-5.4,4.2-8.9,9-8.9c2.8,0,5.5,1.2,7.4,3.4l-2.3,2.2
			c-1.5-1.6-3.2-2.5-5.2-2.5c-3.2,0-5.8,2.5-5.8,5.8c0,3.5,2.5,5.9,5.9,5.9c2.1,0,3.5-0.8,5.1-2.5L230.1,176.2z"/>
		<path class="st4" d="M232.6,161.9h9.3v3.2h-6.1v2.9h6.1v3.5h-6.1v4.4h6.1v2.9h-9.3V161.9z"/>
		<path class="st4" d="M245.4,161.9h3.2v14h4.7v2.9h-7.9V161.9L245.4,161.9z"/>
		<path class="st4" d="M255.7,161.9h9.3v3.2h-6.1v2.9h6.1v3.5h-6.1v4.4h6.1v2.9h-9.3V161.9z"/>
		<path class="st4" d="M268.5,161.9h3.9c2.1,0,3.6,0.3,4.8,1.4c0.8,0.8,1.4,2.1,1.4,3.6c0,2.2-1.1,3.8-3.2,4.6l4,7.7h-3.4l-3.9-7.3
			h-0.3v7.3h-3.2L268.5,161.9L268.5,161.9z M271.7,168.7h1.5c1.5,0,2.2-0.6,2.2-1.8c0-1.1-0.8-1.7-2.4-1.7h-1.4L271.7,168.7
			L271.7,168.7z"/>
		<path class="st4" d="M286.9,161.9h3.3l6.5,16.9h-3.3l-1.3-3.5h-6.9l-1.4,3.5h-3.3L286.9,161.9z M288.6,166.6l-2.2,5.8h4.5
			L288.6,166.6z"/>
		<path class="st4" d="M296.5,161.9h9.3v3.2h-3.2v13.7h-3.2v-13.7h-2.9V161.9z"/>
		<path class="st4" d="M307.9,161.9h3.2v16.9h-3.2V161.9z"/>
		<path class="st4" d="M314.9,161.9h3.3l7.2,11.1v-11.1h3.2v16.9h-3.3l-7.2-11.1v11.1h-3.2L314.9,161.9L314.9,161.9z"/>
		<path class="st4" d="M348.8,170.2c0,2.4-0.3,4.4-2,6.5c-1.6,2-3.7,2.9-6.4,2.9c-5.6,0-9.1-4.4-9.1-9.4c0-5,3.7-9.1,9-9.1
			c3.3,0,5.5,1.2,7.3,3.3l-2.3,2.3c-1.4-1.6-3-2.4-5-2.4c-3.4,0-5.8,2.7-5.8,6c0,3.4,2.7,6.1,6,6.1c2.2,0,3.7-1,4.6-3h-4.9v-3.2
			L348.8,170.2L348.8,170.2z"/>
		<path class="st4" d="M357.5,161.9h9.3v3.2h-3.2v13.7h-3.2v-13.7h-2.9V161.9z"/>
		<path class="st4" d="M368.9,161.9h3.2v6.4h5.8v-6.4h3.2v17.2H378v-7.6h-5.8v7.3h-3.2V161.9z"/>
		<path class="st4" d="M384.7,161.9h9.3v3.2h-6.1v2.9h6.1v3.5h-6.1v4.4h6.1v2.9h-9.3V161.9z"/>
		<path class="st4" d="M404.3,161.9h4.1c3,0,5.1,0.3,6.9,2.1c1.5,1.5,2.4,3.8,2.4,6.5c0,2.9-1.1,5.3-2.9,6.7
			c-1.9,1.5-3.9,1.5-6.4,1.5h-4.1L404.3,161.9L404.3,161.9z M407.4,165.2v10.8h1.7c1.8,0,3.1-0.2,4.1-1.3c0.8-0.9,1.3-2.2,1.3-3.9
			c0-3.6-2-5.5-5.7-5.5L407.4,165.2L407.4,165.2z"/>
		<path class="st4" d="M420.6,161.9h3.2v16.9h-3.2V161.9z"/>
		<path class="st4" d="M444.2,170.2c0,2.4-0.3,4.4-2,6.5c-1.6,2-3.7,2.9-6.4,2.9c-5.6,0-9.1-4.4-9.1-9.4c0-5,3.7-9.1,9-9.1
			c3.3,0,5.5,1.2,7.3,3.3l-2.3,2.3c-1.4-1.6-3-2.4-5-2.4c-3.4,0-5.8,2.7-5.8,6c0,3.4,2.7,6.1,6,6.1c2.2,0,3.7-1,4.6-3h-4.9v-3.2
			L444.2,170.2L444.2,170.2z"/>
		<path class="st4" d="M446.9,161.9h3.2v16.9h-3.2V161.9z"/>
		<path class="st4" d="M452.4,161.9h9.3v3.2h-3.2v13.7h-3.2v-13.7h-2.9V161.9z"/>
		<path class="st4" d="M468.1,161.9h3.3l6.5,16.9h-3.3l-1.3-3.5h-6.9l-1.4,3.5h-3.3L468.1,161.9z M469.7,166.6l-2.2,5.8h4.5
			L469.7,166.6z"/>
		<path class="st4" d="M480.1,161.9h3.2v14h4.7v2.9h-7.9L480.1,161.9L480.1,161.9z"/>
		<path class="st4" d="M497.9,161.9h8.5v3.2h-5.3v2.9h5.3v3.2h-5.3v7.6h-3.2V161.9z"/>
		<path class="st4" d="M509.3,161.9h3.2v11.6c0,1.8,0.9,2.8,2.4,2.8c0.9,0,1.8-0.4,2.2-1c0.4-0.6,0.4-1.3,0.4-2.2v-10.9h3.2v10.6
			c0,1.9,0,3.3-1.3,4.8c-1.1,1.3-2.5,1.8-4.3,1.8c-1.8,0-3.2-0.5-4.2-1.6c-1.4-1.4-1.6-2.9-1.5-5.2V161.9z"/>
		<path class="st4" d="M523,161.9h9.3v3.2h-3.2v13.7H526v-13.7H523V161.9z"/>
		<path class="st4" d="M534.4,161.9h3.2v11.6c0,1.8,0.9,2.8,2.5,2.8c0.9,0,1.8-0.4,2.2-1c0.4-0.6,0.4-1.3,0.3-2.2v-10.9h3.2v10.6
			c0.1,1.9,0,3.3-1.2,4.8c-1.1,1.3-2.5,1.8-4.3,1.8c-1.8,0-3.2-0.5-4.2-1.6c-1.4-1.4-1.6-2.9-1.6-5.2V161.9z"/>
		<path class="st4" d="M549.9,161.9h3.9c2.1,0,3.6,0.3,4.8,1.4c0.8,0.8,1.4,2.1,1.4,3.6c0,2.2-1.1,3.8-3.2,4.6l4,7.7h-3.4l-3.9-7.3
			h-0.3v7.3h-3.2L549.9,161.9L549.9,161.9z M553.1,168.7h1.5c1.5,0,2.2-0.6,2.2-1.8c0-1.1-0.8-1.7-2.4-1.7h-1.4L553.1,168.7
			L553.1,168.7z"/>
		<path class="st4" d="M563.3,161.9h9.3v3.2h-6.1v2.9h6.1v3.5h-6.1v4.4h6.1v2.9h-9.3V161.9z"/>
	</g>
</g>
<g>
	<rect x="179.1" y="246.8" class="st6" width="64.6" height="64.6"/>
	<rect x="179.1" y="366.7" class="st6" width="64.6" height="64.6"/>
	<rect x="179.1" y="485.1" class="st6" width="64.6" height="64.6"/>
	<polygon class="st4" points="200.3,291.2 172,262.9 165,270 200.3,305.4 207.4,298.3 271,234.6 264,227.6 	"/>
	<polygon class="st4" points="200.3,411.1 172,382.8 165,389.9 200.3,425.3 207.4,418.2 271,354.5 264,347.5 	"/>
	<polygon class="st4" points="200.3,529.5 172,501.2 165,508.3 200.3,543.6 207.4,536.6 271,472.9 264,465.8 	"/>
	<text transform="matrix(1 0 0 1 288.2354 312.1233)"><tspan x="0" y="0" class="st4 st7 st8">Collaboration</tspan><tspan x="3.6" y="118.4" class="st4 st7 st8">Transparency</tspan><tspan x="-1.8" y="236.7" class="st4 st7 st8">Flexibility</tspan></text>
</g>
</svg>
